<svg width="161" height="54" viewBox="0 0 161 54" fill="none" xmlns="http://www.w3.org/2000/svg">
<path d="M21.7828 0.00334373C21.7861 0.152697 21.8781 0.266384 21.9468 0.385643C22.482 1.32634 23.0239 2.2637 23.5613 3.20329C24.1697 4.26548 24.777 5.32767 25.3809 6.39209C25.8286 7.17898 26.2685 7.97033 26.7162 8.75611C27.1861 9.58089 27.6648 10.4023 28.1346 11.2271C28.6 12.0441 29.0566 12.8655 29.5209 13.6825C29.8146 14.1997 30.1182 14.7102 30.4141 15.2262C30.8762 16.0343 31.3338 16.8446 31.7948 17.6538C32.2481 18.4485 32.7035 19.2409 33.1567 20.0356C33.6354 20.8749 34.1086 21.7175 34.5885 22.5568C34.8876 23.0806 35.1979 23.5978 35.496 24.1216C35.9526 24.923 36.3992 25.73 36.8557 26.5325C37.2369 27.2034 37.6281 27.8688 38.0115 28.5387C38.3063 29.0548 38.5944 29.5753 38.8892 30.0913C39.2726 30.7612 39.6615 31.4277 40.0449 32.0975C40.3364 32.6058 40.6234 33.1174 40.9126 33.6256C41.2107 34.1495 41.5121 34.6722 41.8113 35.1961C42.0928 35.6887 42.3709 36.1836 42.6524 36.6762C42.8851 37.0853 43.12 37.4932 43.3539 37.9011C43.3749 37.939 43.4048 37.9736 43.3949 38.0237C43.3106 38.0706 43.2209 38.046 43.1355 38.0472C42.3997 38.0494 41.6639 38.0472 40.9281 38.0494C40.7132 38.0494 40.7109 38.0527 40.7098 38.2701C40.7087 39.1171 40.7087 39.9642 40.7098 40.8113C40.7098 41.1067 40.722 41.081 40.4317 41.081C39.5984 41.081 38.765 41.081 37.9317 41.081C37.6979 41.081 37.6957 41.0833 37.6957 41.3106C37.6946 42.1488 37.6946 42.987 37.6957 43.8251C37.6957 44.038 37.699 44.0402 37.9184 44.0402C38.4947 44.0413 39.0709 44.0402 39.6471 44.0413C39.871 44.0413 39.8743 44.0436 39.8754 44.252C39.8776 44.8672 39.8776 45.4825 39.8754 46.0977C39.8743 46.2828 39.871 46.2861 39.6837 46.2872C39.0631 46.2894 38.4426 46.285 37.822 46.2906C37.6857 46.2917 37.6381 46.2504 37.6403 46.1078C37.6469 45.5104 37.6436 44.9129 37.6425 44.3155C37.6425 44.0982 37.6392 44.0948 37.4242 44.0948C36.5997 44.0937 35.7753 44.096 34.9508 44.0937C34.6017 44.0926 34.6483 44.1383 34.6472 43.7761C34.645 42.9557 34.6472 42.1354 34.6461 41.3151C34.6461 41.0844 34.6439 41.0821 34.4134 41.0821C33.5889 41.081 32.7644 41.081 31.94 41.0821C31.7239 41.0821 31.7217 41.0855 31.7206 41.2984C31.7195 42.1365 31.7206 42.9747 31.7195 43.8129C31.7195 44.1149 31.7538 44.0948 31.4291 44.0948C30.5958 44.0948 29.7625 44.0937 28.9292 44.096C28.7098 44.096 28.7064 44.0993 28.7064 44.3133C28.7053 45.1604 28.7053 46.0075 28.7064 46.8545C28.7064 47.0708 28.7098 47.0741 28.9281 47.0741C29.5132 47.0752 30.0983 47.0741 30.6834 47.0752C30.8828 47.0752 30.8861 47.0786 30.8861 47.2803C30.8873 47.8599 30.8861 48.4395 30.8873 49.019C30.8873 49.2854 30.8529 49.2854 31.141 49.2854C31.8148 49.2854 32.4885 49.2843 33.1623 49.2854C33.3828 49.2854 33.3861 49.2876 33.3872 49.4994C33.3883 50.2127 33.3883 50.9261 33.3872 51.6394C33.3872 51.8478 33.3839 51.8512 33.1911 51.8523C32.473 51.8534 31.7549 51.8545 31.0368 51.8523C30.8385 51.8523 30.8363 51.8478 30.8352 51.6416C30.8341 50.9461 30.8352 50.2506 30.8341 49.5551C30.8341 49.3411 30.8307 49.3389 30.6124 49.3389C30.0451 49.3378 29.4777 49.3367 28.9103 49.3389C28.712 49.34 28.7086 49.3434 28.7075 49.5496C28.7064 50.2272 28.7064 50.9049 28.7075 51.5826C28.7075 51.8768 28.7186 51.8534 28.4294 51.8534C27.5517 51.8534 26.6741 51.8534 25.7964 51.8534C25.4873 51.8534 25.5172 51.8311 25.5161 52.1465C25.515 52.5656 25.5172 52.9847 25.515 53.4038C25.5139 53.6155 25.5117 53.6178 25.2945 53.6178C24.8157 53.6189 24.337 53.6144 23.8583 53.62C23.7353 53.6211 23.6854 53.5866 23.6877 53.455C23.6943 52.9646 23.6888 52.4742 23.691 51.9838C23.6921 51.8044 23.6965 51.801 23.8916 51.7999C24.3171 51.7977 24.7426 51.7988 25.1681 51.7988C25.2302 51.7988 25.2922 51.7966 25.3543 51.7988C25.4341 51.801 25.464 51.7598 25.4618 51.684C25.4596 51.6216 25.4618 51.5592 25.4618 51.4967C25.4618 50.5962 25.4607 49.6956 25.4629 48.795C25.4629 48.5754 25.4662 48.5721 25.6801 48.5721C26.5932 48.571 27.5063 48.5721 28.4194 48.571C28.6499 48.571 28.6521 48.5687 28.6532 48.3391C28.6544 48.0182 28.6544 47.6972 28.6532 47.3762C28.6532 47.1142 28.6754 47.1265 28.4139 47.1265C27.616 47.1265 26.8182 47.1265 26.0203 47.1265C25.9671 47.1265 25.9139 47.1276 25.8607 47.1265C25.6624 47.122 25.6579 47.122 25.6579 46.9169C25.6568 46.0253 25.6568 45.1336 25.6579 44.242C25.6579 44.0458 25.6624 44.0425 25.8696 44.0425C26.7206 44.0413 27.5717 44.0413 28.4227 44.0425C28.6688 44.0425 28.6532 44.0547 28.6532 43.8095C28.6532 42.9803 28.6532 42.151 28.6532 41.3218C28.6532 41.0599 28.6654 41.0821 28.4028 41.0821C27.5695 41.0821 26.7362 41.0821 25.9028 41.0821C25.659 41.0821 25.6568 41.0799 25.6568 40.8358C25.6568 38.7939 25.6568 36.752 25.6568 34.7101C25.6568 32.686 25.6568 30.662 25.6568 28.6379C25.6568 28.3136 25.6225 28.3503 25.9372 28.3492C27.0808 28.3481 28.2244 28.3492 29.368 28.3492C29.4201 28.3492 29.471 28.3492 29.5342 28.3492C29.542 28.2244 29.4578 28.162 29.4012 28.0907C28.4981 26.9638 27.5927 25.8381 26.6885 24.7124C25.7388 23.5309 24.7903 22.3495 23.8406 21.168C23.1801 20.3466 22.5152 19.5285 21.8537 18.7082C21.7118 18.532 21.7118 18.5309 21.5811 18.6981C20.9838 19.4571 20.3898 20.2195 19.7892 20.9752C19.111 21.8279 18.434 22.6827 17.7668 23.5443C17.0997 24.407 16.4193 25.2596 15.7434 26.1156C15.1771 26.8312 14.6075 27.5445 14.0413 28.2589C14.0313 28.2712 14.0335 28.2913 14.028 28.3147C14.0934 28.3771 14.1765 28.3459 14.2496 28.347C15.34 28.3492 16.4304 28.3481 17.5208 28.3481C17.5829 28.3481 17.645 28.3503 17.707 28.3481C17.7912 28.3459 17.8422 28.376 17.8378 28.4707C17.8344 28.5331 17.8378 28.5956 17.8378 28.658C17.8378 32.6972 17.8378 36.7364 17.8378 40.7745C17.8378 40.7834 17.8378 40.7924 17.8378 40.8013C17.8378 41.0944 17.861 41.081 17.5696 41.081C16.7629 41.081 15.9561 41.0799 15.1494 41.081C14.7738 41.0821 14.8258 41.042 14.8247 41.4076C14.8225 42.1923 14.8236 42.9769 14.8247 43.7616C14.8247 44.0469 14.7871 44.0413 15.0918 44.0402C15.9251 44.0402 16.7584 44.0391 17.5918 44.0402C17.8367 44.0402 17.8389 44.0425 17.8389 44.2865C17.84 45.1515 17.84 46.0164 17.8389 46.8813C17.8389 47.1231 17.8367 47.1243 17.5884 47.1243C16.7462 47.1254 15.9041 47.1243 15.0619 47.1254C14.8281 47.1254 14.8258 47.1276 14.8247 47.3539C14.8236 47.6659 14.8236 47.978 14.8247 48.2901C14.8247 48.5821 14.797 48.5699 15.0929 48.5699C15.9351 48.5699 16.7773 48.5699 17.6195 48.5699C18.0173 48.5699 18.0173 48.5699 18.0173 48.9566C18.0173 49.8304 18.0162 50.7043 18.0173 51.5781C18.0173 51.7932 18.0206 51.7954 18.2378 51.7966C18.6811 51.7977 19.1243 51.7954 19.5676 51.7977C19.767 51.7988 19.7704 51.8021 19.7715 52.0061C19.7737 52.4876 19.7682 52.9691 19.7748 53.4506C19.7759 53.5788 19.736 53.62 19.6086 53.6189C19.121 53.6133 18.6334 53.6133 18.1458 53.6189C18.0117 53.62 17.9586 53.5832 17.9619 53.4383C17.9696 52.9925 17.9641 52.5467 17.9652 52.1008C17.9652 51.8278 17.9674 51.8512 17.7225 51.8512C16.8449 51.8512 15.9672 51.8512 15.0896 51.8512C15.0275 51.8512 14.9655 51.8501 14.9034 51.8512C14.8159 51.8523 14.7738 51.811 14.7749 51.7219C14.776 51.6238 14.7749 51.5257 14.7749 51.4276C14.7749 50.7946 14.776 50.1615 14.7738 49.5284C14.7726 49.3411 14.7682 49.3367 14.5809 49.3367C13.9958 49.3345 13.4107 49.34 12.8256 49.3333C12.686 49.3322 12.6428 49.379 12.6439 49.5173C12.6494 50.1949 12.6461 50.8726 12.6461 51.5502C12.6461 51.6127 12.6439 51.6751 12.645 51.7375C12.6461 51.8144 12.6129 51.8534 12.5353 51.8512C12.4998 51.8501 12.4644 51.8523 12.4289 51.8523C11.7197 51.8523 11.0105 51.8534 10.3013 51.8512C10.0974 51.8512 10.0941 51.8467 10.0941 51.6472C10.093 50.9339 10.093 50.2205 10.0941 49.5072C10.0941 49.2888 10.0974 49.2854 10.3113 49.2854C10.9939 49.2843 11.6765 49.2843 12.3591 49.2843C12.6029 49.2843 12.5929 49.301 12.5929 49.0547C12.5929 48.4751 12.5929 47.8955 12.5929 47.316C12.5929 47.0674 12.5741 47.073 12.8434 47.073C13.4107 47.0741 13.9781 47.0741 14.5455 47.073C14.7693 47.073 14.7738 47.0708 14.7738 46.8623C14.7749 46.0063 14.7749 45.1503 14.7738 44.2943C14.7738 44.0982 14.7693 44.0948 14.5621 44.0948C13.711 44.0937 12.86 44.0937 12.0089 44.0948C11.764 44.0948 11.7784 44.1082 11.7784 43.8619C11.7784 43.0148 11.7784 42.1677 11.7784 41.3207C11.7784 41.0844 11.7762 41.0821 11.5524 41.081C10.7191 41.0799 9.88574 41.0799 9.05241 41.081C8.82081 41.081 8.8186 41.0833 8.81749 41.3117C8.81638 42.141 8.81749 42.9702 8.81749 43.7995C8.81749 43.8619 8.81527 43.9243 8.81638 43.9867C8.8186 44.0681 8.77538 44.096 8.70114 44.0937C8.63908 44.0915 8.57702 44.0937 8.51497 44.0937C7.69051 44.0937 6.86605 44.0926 6.04159 44.0937C5.8244 44.0937 5.82218 44.0971 5.82107 44.3122C5.81996 44.9007 5.82107 45.4892 5.81997 46.0777C5.81886 46.2816 5.81664 46.2861 5.61717 46.2861C5.00548 46.2883 4.39378 46.2883 3.78209 46.2861C3.5926 46.2861 3.58816 46.2816 3.58706 46.0989C3.58484 45.4747 3.58484 44.8505 3.58706 44.2264C3.58816 44.0447 3.5926 44.0413 3.78541 44.0402C4.36165 44.038 4.93788 44.0391 5.51412 44.0391C5.78229 44.0391 5.76677 44.0469 5.76677 43.7984C5.76567 42.9691 5.76677 42.1399 5.76566 41.3106C5.76566 41.081 5.76345 41.0788 5.53185 41.0788C4.72512 41.0777 3.91839 41.0788 3.11167 41.0788C3.05847 41.0788 3.00528 41.0799 2.95209 41.0788C2.75595 41.0743 2.75595 41.0732 2.75152 40.8648C2.75041 40.8024 2.75152 40.74 2.75152 40.6776C2.75152 39.8751 2.75263 39.0726 2.75152 38.2701C2.75152 38.0505 2.74819 38.0483 2.53543 38.0472C1.78189 38.046 1.02836 38.0472 0.274821 38.046C0.188385 38.046 0.0997328 38.065 0 38.0215C0.105274 37.7373 0.284794 37.4932 0.427745 37.2324C0.709213 36.7186 1.00952 36.217 1.30096 35.7088C1.72206 34.9776 2.14425 34.2476 2.56202 33.5153C2.85236 33.0059 3.13161 32.491 3.42194 31.9816C3.71671 31.4656 4.02034 30.9551 4.31622 30.4402C4.59768 29.9475 4.8725 29.4493 5.15286 28.9556C5.43322 28.4618 5.71691 27.9703 5.99837 27.4776C6.66104 26.314 7.32261 25.1493 7.98638 23.9857C8.27228 23.4841 8.56372 22.987 8.85073 22.4854C9.32613 21.654 9.79709 20.8214 10.2736 19.991C10.749 19.1607 11.2321 18.3337 11.7053 17.5022C12.153 16.7153 12.5896 15.9228 13.0362 15.1359C13.3298 14.6188 13.6357 14.1083 13.9305 13.5922C14.3139 12.9213 14.6884 12.247 15.0718 11.576C15.442 10.9295 15.8198 10.2864 16.19 9.63996C16.498 9.10162 16.7972 8.55771 17.1042 8.01826C17.4023 7.49441 17.7048 6.97279 18.004 6.44893C18.4661 5.63975 18.9249 4.82834 19.3881 4.02027C19.767 3.35822 20.156 2.70285 20.5339 2.03967C20.9195 1.36201 21.2974 0.679891 21.6797 0C21.7118 0.00334373 21.7473 0.00334373 21.7828 0.00334373ZM28.7064 39.5117C28.7064 39.9564 28.7109 40.4023 28.7042 40.847C28.702 40.9852 28.7463 41.032 28.8859 41.0309C29.7536 41.0264 30.6202 41.0264 31.4879 41.0309C31.6253 41.032 31.6718 40.9885 31.6707 40.8481C31.6652 39.9754 31.6663 39.1038 31.6707 38.2311C31.6718 38.0929 31.6286 38.046 31.4901 38.0472C30.6224 38.0516 29.7558 38.0516 28.8882 38.0472C28.7508 38.046 28.7031 38.0895 28.7053 38.2299C28.7109 38.6579 28.7064 39.0848 28.7064 39.5117ZM7.31596 38.0505C6.88267 38.0505 6.44939 38.0494 6.015 38.0516C5.82329 38.0527 5.81775 38.0561 5.81775 38.2377C5.81553 39.1093 5.81996 39.9821 5.81442 40.8537C5.81331 40.9963 5.8654 41.0331 5.99948 41.032C6.85719 41.0275 7.71599 41.0275 8.5737 41.032C8.70557 41.0331 8.76208 41.0019 8.76208 40.8559C8.75654 39.9754 8.75765 39.0937 8.76208 38.2132C8.76319 38.0817 8.71333 38.0472 8.59032 38.0483C8.1659 38.0538 7.74038 38.0505 7.31596 38.0505ZM13.3265 38.0505C12.8932 38.0505 12.46 38.0494 12.0256 38.0516C11.8339 38.0527 11.8283 38.0561 11.8283 38.2377C11.8261 39.1093 11.8305 39.9821 11.825 40.8537C11.8239 40.9963 11.8771 41.032 12.0112 41.032C12.8689 41.0275 13.7277 41.0275 14.5854 41.032C14.7172 41.0331 14.7738 41.0008 14.7726 40.8559C14.7671 39.9754 14.7682 39.0937 14.7726 38.2132C14.7738 38.0817 14.7228 38.0472 14.6009 38.0494C14.1754 38.0538 13.7509 38.0505 13.3265 38.0505ZM37.6425 39.5663C37.6425 39.1205 37.6381 38.6747 37.6447 38.2299C37.6469 38.0917 37.6026 38.0472 37.463 38.0472C36.613 38.0527 35.762 38.0494 34.912 38.0505C34.7236 38.0505 34.7192 38.055 34.7181 38.2422C34.7159 39.106 34.7159 39.9709 34.7181 40.8347C34.7181 41.022 34.7236 41.0264 34.912 41.0264C35.762 41.0286 36.613 41.0242 37.463 41.0298C37.6026 41.0309 37.6469 40.9863 37.6447 40.8481C37.6381 40.4223 37.6425 39.9943 37.6425 39.5663Z" fill="#8C52FE"/>
<path d="M128.773 21.0806C128.872 21.0639 128.918 21.0026 128.974 20.9468C129.482 20.4542 130.043 20.0452 130.743 19.8757C131.105 19.7877 131.478 19.7732 131.848 19.7999C132.181 19.8234 132.505 19.8902 132.818 20.0318C133.254 20.2279 133.589 20.5244 133.846 20.9201C134.036 21.2132 134.027 21.2043 134.265 20.9636C134.768 20.452 135.338 20.0407 136.045 19.8724C136.405 19.7866 136.773 19.7821 137.148 19.8155C137.49 19.8456 137.803 19.9259 138.11 20.0752C138.531 20.2792 138.852 20.5857 139.083 20.9847C139.435 21.5944 139.592 22.2565 139.617 22.9642C139.683 24.9058 139.627 26.8485 139.647 28.7901C139.65 29.1245 139.682 29.0855 139.348 29.0866C138.488 29.0877 137.628 29.0877 136.769 29.0866C136.501 29.0866 136.51 29.1278 136.51 28.8313C136.51 27.1372 136.511 25.4441 136.51 23.75C136.51 23.4647 136.474 23.1827 136.36 22.9174C136.227 22.6087 135.891 22.4181 135.567 22.476C135.136 22.5541 134.783 22.7803 134.474 23.0868C134.382 23.1782 134.403 23.2819 134.403 23.3844C134.402 24.6773 134.402 25.9691 134.402 27.262C134.402 27.8059 134.403 28.3498 134.401 28.8938C134.4 29.0832 134.396 29.0855 134.186 29.0855C133.282 29.0866 132.377 29.0866 131.474 29.0855C131.248 29.0855 131.246 29.0832 131.246 28.8536C131.245 27.4181 131.246 25.9836 131.246 24.548C131.246 24.2092 131.245 23.8704 131.246 23.5315C131.247 23.3242 131.196 23.1269 131.122 22.9364C130.952 22.4983 130.475 22.388 130.054 22.5373C129.739 22.6488 129.485 22.8517 129.238 23.0668C129.14 23.1515 129.134 23.2585 129.135 23.3777C129.137 25.17 129.137 26.9611 129.137 28.7533C129.137 28.8068 129.132 28.8614 129.138 28.9138C129.157 29.0609 129.086 29.0888 128.954 29.0877C128.041 29.0832 127.128 29.0855 126.216 29.0844C126.002 29.0844 126 29.081 126 28.8648C125.999 27.6878 126 26.5108 126 25.3349C126 23.6675 126 22.0012 126 20.3338C126 20.2714 126.003 20.209 125.999 20.1466C125.991 20.0429 126.037 20.0061 126.139 20.0073C126.91 20.0095 127.681 20.0106 128.452 20.0061C128.558 20.005 128.588 20.0529 128.604 20.1443C128.653 20.4542 128.713 20.7641 128.773 21.0806Z" fill="black"/>
<path d="M56.3399 20.6091C56.5394 20.4709 56.7101 20.3204 56.9128 20.2179C57.283 20.0307 57.6542 19.8646 58.0797 19.8222C58.5252 19.7776 58.964 19.7821 59.3907 19.9002C59.8406 20.0262 60.2461 20.2402 60.6129 20.5545C61.2413 21.0928 61.587 21.7906 61.802 22.5552C61.997 23.2473 62.0857 23.9662 62.0391 24.6885C61.987 25.5055 61.8419 26.3035 61.4917 27.0547C61.1947 27.6922 60.7814 28.2406 60.2218 28.6575C59.4538 29.2304 58.5806 29.4276 57.642 29.2382C57.2242 29.1535 56.8541 28.9328 56.5261 28.6541C56.3377 28.4947 56.1626 28.3198 55.9598 28.1314C55.89 28.3855 55.8003 28.6173 55.7637 28.867C55.7338 29.0721 55.7183 29.081 55.5088 29.0821C54.8262 29.0832 54.1436 29.0821 53.4621 29.0832C53.2194 29.0832 53.2305 29.0922 53.2316 28.8503C53.2327 27.379 53.2316 25.9089 53.2316 24.4377C53.2316 21.8887 53.2316 19.3385 53.2316 16.7895C53.2316 16.736 53.2382 16.6814 53.2305 16.629C53.2072 16.4763 53.2859 16.454 53.4144 16.4551C54.3453 16.4584 55.275 16.4596 56.2059 16.4551C56.3289 16.454 56.3743 16.4818 56.3732 16.6156C56.3599 17.7826 56.3898 18.9506 56.3521 20.1176C56.3444 20.2725 56.2812 20.4263 56.3399 20.6091ZM58.7956 24.3797C58.7923 24.2192 58.7812 23.9896 58.7679 23.76C58.7501 23.439 58.6493 23.1515 58.5041 22.8773C58.3789 22.641 58.175 22.4571 57.9157 22.417C57.5124 22.3557 57.1001 22.3512 56.7577 22.6432C56.6569 22.729 56.5704 22.8327 56.4707 22.9196C56.3898 22.9899 56.3654 23.0701 56.3654 23.1771C56.3687 24.1568 56.371 25.1365 56.3632 26.1151C56.3621 26.2611 56.4153 26.3503 56.5261 26.4205C56.7666 26.571 57.0148 26.6746 57.3073 26.7159C57.8924 26.7972 58.3291 26.4662 58.5396 26.0104C58.769 25.5121 58.8011 24.9849 58.7956 24.3797Z" fill="black"/>
<path d="M97.329 23.1047C97.544 22.8372 97.7612 22.5719 97.9729 22.3011C98.5247 21.5966 99.0721 20.89 99.624 20.1856C99.6993 20.0897 99.7747 20.0028 99.9254 20.0039C100.971 20.0106 102.016 20.0073 103.063 20.0084C103.087 20.0084 103.11 20.0195 103.16 20.0318C103.075 20.2436 102.896 20.374 102.769 20.5322C102.404 20.9859 102.009 21.415 101.63 21.8586C101.137 22.4359 100.649 23.0188 100.158 23.5984C99.9908 23.7957 99.9852 23.7968 100.119 24.0064C100.497 24.5949 100.882 25.1789 101.26 25.7674C101.555 26.2299 101.841 26.6981 102.136 27.1606C102.412 27.5931 102.695 28.0222 102.973 28.4535C103.098 28.6463 103.219 28.8425 103.341 29.0342C103.299 29.1156 103.229 29.0821 103.172 29.0833C102.162 29.0855 101.152 29.0821 100.141 29.0877C99.9985 29.0888 99.9221 29.0465 99.8523 28.9183C99.5243 28.3209 99.2007 27.7212 98.8538 27.1339C98.6433 26.7761 98.4593 26.4016 98.2621 26.036C98.2421 25.9992 98.2244 25.9569 98.1579 25.9379C97.9562 26.1597 97.7612 26.4016 97.5363 26.61C97.3069 26.824 97.2515 27.0692 97.2648 27.3713C97.2858 27.8784 97.2725 28.3866 97.2703 28.8949C97.2692 29.0788 97.2659 29.0821 97.0786 29.0833C96.2009 29.0844 95.3244 29.0844 94.4467 29.0833C94.2229 29.0833 94.2218 29.081 94.2218 28.8481C94.2218 26.9589 94.2218 25.0697 94.2218 23.1793C94.2218 21.0494 94.2218 18.9194 94.2218 16.7895C94.2218 16.736 94.2284 16.6814 94.2207 16.629C94.1985 16.4819 94.2672 16.454 94.4002 16.4551C95.2867 16.4596 96.1721 16.4573 97.0586 16.4573C97.2891 16.4573 97.2725 16.4428 97.2725 16.6736C97.2725 18.7233 97.2725 20.773 97.2725 22.8227C97.2725 22.9085 97.2725 22.9954 97.2725 23.0813C97.2914 23.0902 97.3102 23.0969 97.329 23.1047Z" fill="black"/>
<path d="M154.468 21.1118C154.713 20.8599 154.951 20.666 155.208 20.4954C155.735 20.1432 156.284 19.8702 156.935 19.8211C157.416 19.7843 157.889 19.7732 158.347 19.9292C159.138 20.1979 159.634 20.7585 159.897 21.5532C160.041 21.9879 160.12 22.4237 160.151 22.8795C160.175 23.2262 160.176 23.5728 160.176 23.9183C160.18 25.5322 160.177 27.1461 160.177 28.76C160.177 28.8135 160.172 28.8681 160.178 28.9205C160.193 29.0509 160.137 29.0888 160.011 29.0877C159.506 29.0821 159 29.0855 158.495 29.0855C158.087 29.0855 157.68 29.0866 157.272 29.0855C157.059 29.0844 157.057 29.0821 157.057 28.8648C157.056 27.2955 157.06 25.7261 157.053 24.1568C157.052 23.7946 157.041 23.4324 156.954 23.0735C156.827 22.5574 156.405 22.4382 156.004 22.4838C155.528 22.5385 155.186 22.8338 154.848 23.1348C154.809 23.1693 154.805 23.2094 154.805 23.254C154.805 23.3164 154.805 23.3789 154.805 23.4413C154.805 25.2246 154.805 27.0079 154.805 28.7901C154.805 29.1245 154.839 29.0833 154.503 29.0844C153.66 29.0855 152.818 29.0855 151.976 29.0844C151.656 29.0844 151.685 29.1189 151.685 28.8057C151.685 25.9613 151.685 23.118 151.685 20.2736C151.685 19.9917 151.659 20.0073 151.936 20.0073C152.645 20.0073 153.354 20.0062 154.064 20.0084C154.266 20.0084 154.269 20.0106 154.29 20.2057C154.323 20.4954 154.408 20.7763 154.468 21.1118Z" fill="black"/>
<path d="M89.3726 27.8951C89.1343 28.1437 88.9426 28.3744 88.7055 28.5639C88.2334 28.9395 87.7203 29.2025 87.1108 29.2683C86.6942 29.314 86.2819 29.3162 85.8719 29.2471C85.3799 29.1635 84.9544 28.9395 84.612 28.5694C84.0967 28.0121 83.8917 27.3244 83.7953 26.5911C83.7521 26.2556 83.741 25.919 83.741 25.5813C83.7432 23.8347 83.7421 22.0871 83.7421 20.3405C83.7421 20.287 83.7476 20.2324 83.741 20.18C83.7221 20.0329 83.792 20.005 83.9249 20.005C84.838 20.0095 85.75 20.0073 86.6631 20.0084C86.8781 20.0084 86.8803 20.0117 86.8803 20.2268C86.8815 21.8575 86.8781 23.4892 86.8826 25.1198C86.8837 25.3851 86.8759 25.6515 86.9313 25.9156C87.0787 26.6145 87.5253 26.678 87.9841 26.6122C88.4428 26.5465 88.7531 26.2422 88.9969 25.8644C89.049 25.783 89.0246 25.6905 89.0246 25.6035C89.0257 23.857 89.0246 22.1093 89.0268 20.3628C89.0268 19.9515 88.9681 20.0106 89.3748 20.0095C90.2258 20.0061 91.0758 20.0084 91.9268 20.0084C92.1673 20.0084 92.164 19.9805 92.164 20.2324C92.164 23.1113 92.164 25.9903 92.164 28.8693C92.164 29.0844 92.1618 29.0855 91.9468 29.0855C91.2287 29.0866 90.5117 29.0866 89.7937 29.0855C89.5964 29.0855 89.5886 29.0844 89.5576 28.8893C89.5166 28.6263 89.4269 28.3721 89.4291 28.1024C89.4302 28.0434 89.3992 27.9854 89.3726 27.8951Z" fill="black"/>
<path d="M69.2254 27.9085C69.0249 28.0957 68.8686 28.2986 68.6747 28.4669C68.0563 29.003 67.3582 29.3095 66.5304 29.3017C66.014 29.2973 65.5143 29.2638 65.0433 29.0063C64.641 28.7868 64.333 28.4803 64.1136 28.0868C63.729 27.3969 63.5905 26.639 63.5861 25.8599C63.5772 24.0064 63.5828 22.1528 63.5839 20.2993C63.5839 19.9549 63.554 20.0095 63.8864 20.0084C64.7552 20.0062 65.6229 20.0084 66.4916 20.0073C66.7332 20.0073 66.7232 19.9983 66.7232 20.2402C66.7221 21.8708 66.7221 23.5015 66.7232 25.1332C66.7232 25.4442 66.7443 25.754 66.8318 26.055C66.9415 26.4339 67.1731 26.6122 67.5588 26.6245C68.0475 26.6412 68.4087 26.4294 68.7146 26.0527C68.8686 25.8621 68.9063 25.676 68.9052 25.4475C68.8996 23.7456 68.9018 22.0436 68.9018 20.3405C68.9018 20.287 68.9074 20.2324 68.9007 20.18C68.883 20.0374 68.9462 20.0017 69.0825 20.0028C69.9867 20.0084 70.8899 20.0073 71.7941 20.005C72.0235 20.005 72.0058 20.0073 72.0058 20.2291C72.0058 22.0915 72.0058 23.954 72.0058 25.8164C72.0058 26.8329 72.0046 27.8483 72.0058 28.8648C72.0058 29.1055 72.0013 29.0844 71.7897 29.0844C71.0716 29.0833 70.3546 29.0844 69.6365 29.0833C69.4349 29.0833 69.4205 29.0732 69.4005 28.8603C69.3728 28.5438 69.2952 28.2362 69.2254 27.9085Z" fill="black"/>
<path d="M150.091 24.47C150.097 25.4419 149.931 26.3068 149.478 27.0948C149.227 27.5329 148.916 27.9241 148.523 28.2529C148.242 28.4881 147.947 28.6931 147.621 28.8481C147.183 29.0576 146.73 29.2192 146.238 29.2671C145.707 29.3195 145.176 29.3285 144.658 29.217C143.583 28.9863 142.705 28.4301 142.04 27.5362C141.597 26.9388 141.353 26.2667 141.205 25.5478C141.136 25.2157 141.11 24.8768 141.112 24.5447C141.114 24.1044 141.166 23.6631 141.272 23.2295C141.403 22.699 141.603 22.1963 141.905 21.7471C142.218 21.2834 142.602 20.8889 143.071 20.5668C143.576 20.2179 144.125 19.9939 144.714 19.8746C145.145 19.7877 145.584 19.7843 146.03 19.8167C146.452 19.8479 146.844 19.9482 147.236 20.0897C147.776 20.2837 148.253 20.5768 148.666 20.9714C148.908 21.2032 149.131 21.4517 149.313 21.7404C149.687 22.3334 149.941 22.9653 150.03 23.6653C150.064 23.9551 150.102 24.246 150.091 24.47ZM146.89 24.5837C146.885 24.2928 146.886 23.9985 146.823 23.7121C146.753 23.3944 146.677 23.0835 146.497 22.7937C146.126 22.1952 145.118 22.1918 144.735 22.7781C144.6 22.9854 144.482 23.2105 144.443 23.4569C144.336 24.1323 144.304 24.8088 144.425 25.491C144.471 25.7507 144.549 25.9903 144.67 26.2154C144.981 26.7995 145.809 26.9444 146.308 26.5075C146.496 26.3414 146.627 26.1396 146.7 25.8922C146.826 25.4642 146.897 25.0306 146.89 24.5837Z" fill="black"/>
<path d="M121.221 28.215C120.97 28.4513 120.717 28.6408 120.448 28.8091C120.014 29.0799 119.548 29.2649 119.038 29.2928C118.534 29.3195 118.032 29.3062 117.557 29.0899C116.894 28.789 116.451 28.293 116.186 27.6187C115.997 27.1361 115.972 26.639 116.018 26.1285C116.041 25.8777 116.091 25.6425 116.186 25.4085C116.425 24.8222 116.848 24.421 117.384 24.1145C118.092 23.7099 118.861 23.4992 119.657 23.3655C120.048 23.2997 120.436 23.2172 120.833 23.1905C120.842 22.7904 120.623 22.505 120.251 22.3913C119.71 22.2253 119.183 22.3077 118.667 22.4772C118.274 22.6064 117.895 22.7803 117.533 22.9854C117.378 23.0734 117.378 23.069 117.29 22.9085C116.995 22.3646 116.699 21.8207 116.405 21.2768C116.379 21.2299 116.359 21.1809 116.331 21.1341C116.269 21.0282 116.292 20.948 116.401 20.8933C116.757 20.7161 117.105 20.5244 117.468 20.3661C118.013 20.1299 118.579 19.9515 119.165 19.869C119.679 19.7966 120.197 19.7665 120.721 19.8133C121.067 19.8445 121.402 19.8869 121.734 19.9916C122.377 20.1945 122.904 20.5601 123.292 21.1151C123.611 21.5721 123.799 22.0871 123.9 22.6332C124.049 23.4335 124.029 24.2438 124.026 25.0529C124.024 26.2834 124.025 27.5128 124.025 28.7433C124.025 28.7968 124.021 28.8503 124.026 28.9038C124.041 29.0398 123.994 29.091 123.85 29.0866C123.496 29.0766 123.141 29.0832 122.786 29.0832C122.405 29.0832 122.024 29.0754 121.643 29.0866C121.487 29.091 121.429 29.0353 121.393 28.8871C121.344 28.6742 121.335 28.4491 121.221 28.215ZM120.87 25.1076C120.407 25.1533 119.981 25.2558 119.587 25.462C119.301 25.6113 119.044 25.7997 119.007 26.1653C118.987 26.3592 119.013 26.5454 119.161 26.6735C119.362 26.8485 119.615 26.9132 119.878 26.8831C120.264 26.8396 120.563 26.6289 120.816 26.3403C120.853 26.2979 120.873 26.2544 120.873 26.1976C120.869 25.8343 120.87 25.472 120.87 25.1076Z" fill="black"/>
<path d="M73.2236 20.0396C73.3156 19.9928 73.3876 20.0084 73.4563 20.0084C74.3517 20.0073 75.246 20.0073 76.1413 20.0084C76.3696 20.0084 76.3774 20.0073 76.4428 20.2157C76.6478 20.8744 76.8472 21.5365 77.0489 22.1963C77.142 22.5017 77.2273 22.8093 77.3304 23.1114C77.6473 24.0443 77.859 25.0039 78.0739 25.9636C78.0751 25.968 78.0839 25.9703 78.1072 25.9859C78.2058 25.7841 78.2302 25.5645 78.2734 25.3539C78.3056 25.1978 78.3321 25.0418 78.3676 24.8858C78.6413 23.6842 78.9516 22.4928 79.2652 21.3013C79.3638 20.9257 79.4957 20.5556 79.5478 20.1678C79.5666 20.0296 79.642 20.0028 79.7683 20.005C80.1495 20.0128 80.5307 20.0073 80.9108 20.0073C81.4593 20.0073 82.009 20.0073 82.5675 20.0073C82.6129 20.1878 82.501 20.3216 82.4555 20.4654C82.2539 21.0895 82.0433 21.7092 81.8306 22.33C81.733 22.6154 81.6278 22.8974 81.5336 23.1827C81.2488 24.0409 80.9474 24.8925 80.6581 25.7484C80.3689 26.6044 80.0963 27.466 79.7993 28.3198C79.4758 29.2493 79.1267 30.1677 78.5604 30.9847C78.156 31.5688 77.6384 32.009 76.9747 32.2598C76.7453 32.3456 76.5004 32.3958 76.2577 32.437C75.5629 32.5552 74.8703 32.5362 74.1866 32.3501C74.0037 32.2999 74.0015 32.2955 74.0492 32.1205C74.211 31.5398 74.2974 30.9413 74.4681 30.3628C74.5102 30.2201 74.4869 30.0607 74.5767 29.9181C74.8759 29.995 75.1784 30.0329 75.4887 29.9939C75.9663 29.9337 76.2987 29.6807 76.4993 29.2449C76.5026 29.2371 76.5026 29.227 76.507 29.2192C76.6688 28.8882 76.5924 28.5761 76.4594 28.2551C76.2056 27.641 75.9707 27.0191 75.7269 26.4016C75.5152 25.8666 75.2981 25.3327 75.0897 24.7966C74.7938 24.0376 74.5068 23.2763 74.211 22.5173C73.9916 21.9567 73.7644 21.3994 73.5405 20.841C73.4353 20.5802 73.3333 20.3182 73.2236 20.0396Z" fill="black"/>
<path d="M111.076 22.4682C110.908 22.4682 110.795 22.4682 110.683 22.4682C109.894 22.4682 109.105 22.4682 108.316 22.4682C108.084 22.4682 108.105 22.4794 108.105 22.2498C108.105 21.5721 108.103 20.8945 108.105 20.2168C108.105 20.0106 108.108 20.0073 108.302 20.0073C110.474 20.0061 112.646 20.0061 114.817 20.0073C115.015 20.0073 115.017 20.0106 115.018 20.2157C115.021 20.6704 115.017 21.1252 115.021 21.5799C115.021 21.6724 115.006 21.7516 114.947 21.8273C114.614 22.2531 114.331 22.7146 114.021 23.157C113.609 23.7444 113.202 24.3351 112.794 24.9248C112.453 25.4196 112.114 25.9167 111.775 26.4138C111.737 26.4696 111.679 26.5186 111.689 26.6234C111.765 26.6234 111.84 26.6234 111.917 26.6234C112.91 26.6234 113.902 26.6245 114.895 26.6234C115.16 26.6234 115.126 26.6312 115.126 26.8541C115.126 27.505 115.126 28.1559 115.126 28.8068C115.126 29.1055 115.157 29.0844 114.86 29.0844C113.636 29.0844 112.413 29.0844 111.19 29.0844C110.099 29.0844 109.009 29.0844 107.918 29.0844C107.667 29.0844 107.678 29.1156 107.678 28.8369C107.678 28.4268 107.683 28.0166 107.675 27.6064C107.671 27.4437 107.73 27.3256 107.823 27.1974C108.105 26.8117 108.366 26.4105 108.639 26.0182C109.143 25.2903 109.653 24.5647 110.155 23.8358C110.457 23.3989 110.749 22.9564 111.076 22.4682Z" fill="black"/>
<path d="M118.916 34.0531C118.86 34.0888 118.821 34.1089 118.786 34.1356C118.706 34.1958 118.645 34.188 118.589 34.1011C118.479 33.9316 118.322 33.8269 118.136 33.7511C117.507 33.497 116.776 34.0297 116.785 34.6673C116.79 35.0719 116.933 35.3761 117.261 35.5812C117.651 35.8253 118.052 35.7863 118.439 35.5556C118.569 35.4787 118.679 35.2703 118.716 35.0485C118.415 35.0485 118.117 35.0485 117.805 35.0485C117.773 34.9504 117.781 34.8645 117.798 34.7553C118.006 34.7553 118.216 34.7553 118.427 34.7553C118.63 34.7553 118.833 34.7553 119.033 34.7553C119.121 35.307 118.839 35.7941 118.305 35.9657C117.652 36.1753 116.971 35.9758 116.616 35.3394C116.534 35.1922 116.525 35.0373 116.503 34.8802C116.4 34.1512 116.825 33.6028 117.45 33.4301C118.086 33.254 118.71 33.6028 118.896 33.9885C118.903 34.0052 118.907 34.023 118.916 34.0531Z" fill="black"/>
<path d="M97.2171 34.1312C97.1384 34.2348 97.1672 34.3262 97.1661 34.4098C97.1628 34.8724 97.1661 35.336 97.1639 35.7986C97.1628 35.9914 97.1539 35.9903 96.9744 35.988C96.8625 35.9869 96.8425 35.9345 96.8436 35.8398C96.847 35.5812 96.8448 35.3238 96.8448 35.0652C96.8448 34.5848 96.8436 34.1033 96.847 33.6229C96.847 33.5594 96.8071 33.4624 96.9068 33.4446C96.9955 33.429 97.0996 33.3989 97.1705 33.5059C97.2725 33.6597 97.3844 33.809 97.4875 33.9617C97.7845 34.4009 98.0803 34.8411 98.3762 35.2814C98.3851 35.2948 98.4017 35.3015 98.4338 35.3271C98.5158 35.1187 98.4637 34.9102 98.4737 34.7096C98.4826 34.5057 98.4759 34.3006 98.4759 34.0955C98.4759 33.8826 98.4759 33.6708 98.4759 33.4635C98.5701 33.4234 98.6477 33.4334 98.7231 33.4457C98.7785 33.4881 98.7585 33.546 98.7585 33.595C98.7596 34.3251 98.7607 35.0551 98.7574 35.7852C98.7574 35.8532 98.8095 35.9602 98.6887 35.9814C98.5934 35.9981 98.5014 35.9947 98.4338 35.8911C98.2244 35.5734 98.0072 35.2613 97.79 34.9493C97.6049 34.684 97.4431 34.4009 97.2171 34.1312Z" fill="black"/>
<path d="M102.973 36.0393C102.208 36.0427 101.646 35.4865 101.646 34.7174C101.645 33.9673 102.165 33.3877 102.975 33.3889C103.755 33.39 104.294 33.9595 104.288 34.7297C104.284 35.4753 103.724 36.0471 102.973 36.0393ZM102.933 35.7362C103.452 35.7696 103.949 35.355 103.975 34.7631C104 34.1713 103.556 33.7099 103.004 33.6887C102.445 33.6675 101.972 34.1189 101.953 34.6907C101.936 35.2457 102.389 35.7228 102.933 35.7362Z" fill="black"/>
<path d="M112.392 36.0393C111.66 36.0415 111.087 35.4798 111.088 34.7185C111.089 33.9283 111.656 33.3799 112.41 33.3889C113.228 33.3978 113.736 33.9818 113.731 34.7252C113.725 35.5077 113.123 36.0571 112.392 36.0393ZM112.385 35.7362C112.978 35.7484 113.405 35.2825 113.421 34.7219C113.438 34.1769 112.944 33.6764 112.398 33.6876C111.866 33.6987 111.408 34.0933 111.399 34.7074C111.39 35.3461 111.933 35.7584 112.385 35.7362Z" fill="black"/>
<path d="M87.9143 33.4357C88.3664 33.4357 88.8008 33.439 89.2341 33.4334C89.3515 33.4323 89.3837 33.4769 89.3848 33.5895C89.3859 33.7087 89.3393 33.7422 89.2274 33.7399C88.9703 33.7344 88.7132 33.7366 88.4561 33.7388C88.3686 33.7399 88.2788 33.721 88.1846 33.7633C88.1846 34.0164 88.1846 34.2727 88.1846 34.5514C88.5459 34.5514 88.906 34.5514 89.2473 34.5514C89.3028 34.6193 89.2884 34.6751 89.2917 34.7263C89.2994 34.8311 89.2496 34.8645 89.1487 34.8623C88.8739 34.8579 88.5991 34.8601 88.3243 34.8612C88.281 34.8612 88.2378 34.8701 88.1747 34.8768C88.1747 35.112 88.1791 35.3416 88.1736 35.5712C88.1702 35.6949 88.2312 35.7194 88.3365 35.7172C88.6201 35.7139 88.9038 35.715 89.1875 35.7161C89.4003 35.7172 89.4003 35.7183 89.3792 35.9702C88.8972 35.9702 88.414 35.9702 87.9298 35.9702C87.8832 35.7908 87.8666 33.8425 87.9143 33.4357Z" fill="black"/>
<path d="M129.332 35.9602C129.391 35.7841 129.437 35.6046 129.508 35.4352C129.77 34.8155 129.996 34.1813 130.232 33.5516C130.267 33.4568 130.321 33.4279 130.41 33.4346C130.492 33.4412 130.579 33.4089 130.623 33.5338C130.727 33.8247 130.859 34.1066 130.964 34.3976C131.114 34.8144 131.261 35.2313 131.437 35.6381C131.478 35.7339 131.515 35.8354 131.521 35.9424C131.268 36.0148 131.249 36.0081 131.159 35.7941C131.102 35.6559 131.089 35.4742 130.971 35.3929C130.844 35.3048 130.662 35.3672 130.505 35.3617C130.345 35.3561 130.185 35.3683 130.027 35.3583C129.908 35.3505 129.849 35.3996 129.814 35.5054C129.789 35.5812 129.742 35.6503 129.724 35.7272C129.662 35.9802 129.689 36.0181 129.332 35.9602ZM130.875 35.063C130.737 34.6684 130.611 34.2861 130.426 33.8926C130.274 34.2939 130.133 34.6695 129.985 35.063C130.284 35.063 130.562 35.063 130.875 35.063Z" fill="black"/>
<path d="M93.0405 35.0039C92.8698 35.2703 92.6848 35.5277 92.5352 35.8053C92.4532 35.958 92.3579 36.0103 92.2005 35.9869C92.1662 35.9814 92.1307 35.9825 92.0664 35.9791C92.2559 35.6737 92.4343 35.3839 92.615 35.0942C92.6382 35.0563 92.6715 35.0251 92.6948 34.9883C92.8909 34.684 92.8854 34.6494 92.6815 34.3418C92.5097 34.0843 92.3479 33.8202 92.1817 33.5594C92.1606 33.5271 92.1529 33.4959 92.1662 33.4557C92.3568 33.39 92.4864 33.4435 92.5895 33.6307C92.7247 33.877 92.8887 34.1066 93.0383 34.3407C93.1147 34.3496 93.1314 34.2883 93.158 34.2471C93.281 34.0531 93.4029 33.8592 93.5203 33.6619C93.6677 33.4156 93.6655 33.4145 94.0024 33.4602C93.8838 33.6552 93.7719 33.8436 93.6566 34.0297C93.5491 34.2025 93.4472 34.3808 93.3275 34.5447C93.2488 34.6528 93.271 34.7275 93.3386 34.8289C93.5547 35.1521 93.7619 35.4831 93.9713 35.8108C94.0002 35.8554 94.0323 35.9 94.009 35.9635C93.814 36.036 93.6788 35.9635 93.578 35.7885C93.4627 35.589 93.3397 35.394 93.2222 35.1967C93.1768 35.122 93.1369 35.0418 93.0405 35.0039Z" fill="black"/>
<path d="M127.126 33.4602C126.843 33.9239 126.582 34.363 126.308 34.7943C126.237 34.9058 126.204 35.0128 126.206 35.1421C126.211 35.4163 126.207 35.6905 126.207 35.9501C126.148 35.9925 126.102 35.9802 126.06 35.9858C125.953 36.0014 125.92 35.9535 125.922 35.851C125.927 35.6024 125.92 35.3527 125.926 35.1031C125.928 34.9916 125.892 34.9047 125.832 34.8088C125.553 34.3708 125.287 33.9238 125.015 33.4758C125.326 33.4033 125.326 33.4033 125.467 33.6385C125.64 33.9261 125.813 34.2148 125.983 34.5034C126.006 34.5413 126.024 34.5814 126.079 34.5971C126.271 34.2839 126.471 33.9718 126.66 33.6541C126.798 33.4234 126.792 33.4201 127.126 33.4602Z" fill="black"/>
<path d="M84.0091 35.9736C84.0091 35.4118 84.0091 34.8612 84.0091 34.3106C84.0091 34.1858 84.0102 34.0621 84.0091 33.9372C84.0069 33.7433 84.0058 33.7422 83.8019 33.7399C83.6512 33.7377 83.5016 33.7355 83.3509 33.7411C83.2345 33.7444 83.229 33.6753 83.2279 33.5861C83.2268 33.4936 83.2412 33.4346 83.3553 33.4357C83.8861 33.439 84.4169 33.439 84.9466 33.4357C85.0597 33.4346 85.0763 33.4925 85.0752 33.5861C85.0741 33.6731 85.0707 33.7455 84.9533 33.7422C84.7948 33.7377 84.6341 33.7478 84.4757 33.7388C84.3582 33.7322 84.3261 33.7745 84.3272 33.8904C84.3316 34.4689 84.3294 35.0462 84.3294 35.6247C84.3294 35.6604 84.3294 35.696 84.3294 35.7317C84.3272 35.9892 84.3272 35.9892 84.0091 35.9736Z" fill="black"/>
<path d="M108.592 35.7283C108.596 35.7785 108.599 35.8209 108.601 35.8643C108.608 35.9524 108.576 35.9892 108.48 35.988C108.091 35.9836 107.702 35.9825 107.313 35.988C107.195 35.9903 107.163 35.9423 107.164 35.8309C107.168 35.4129 107.165 34.995 107.165 34.577C107.165 34.2571 107.167 33.9361 107.164 33.6162C107.163 33.5092 107.164 33.4301 107.312 33.4312C107.453 33.4323 107.469 33.4959 107.467 33.6107C107.464 34.207 107.465 34.8021 107.466 35.3984C107.466 35.4608 107.471 35.5233 107.465 35.5857C107.457 35.6893 107.504 35.7228 107.604 35.7205C107.895 35.7161 108.188 35.7183 108.479 35.7194C108.515 35.7194 108.549 35.725 108.592 35.7283Z" fill="black"/>
<path d="M121.934 33.4446C122.008 33.4412 122.061 33.439 122.113 33.4357C122.19 33.4312 122.253 33.4401 122.253 33.5438C122.252 34.3184 122.252 35.093 122.254 35.8688C122.254 35.9903 122.18 35.9903 122.096 35.9869C122.02 35.9836 121.933 36.0092 121.933 35.8788C121.935 35.0696 121.934 34.2616 121.934 33.4446Z" fill="black"/>
</svg>
