<svg width="25" height="24" viewBox="0 0 25 24" fill="none" xmlns="http://www.w3.org/2000/svg">
<path d="M19.7 16.5H21.5V18.3H3.5V16.5H5.3V10.2C5.3 8.29044 6.05857 6.45909 7.40883 5.10883C8.75909 3.75857 10.5904 3 12.5 3C14.4096 3 16.2409 3.75857 17.5912 5.10883C18.9414 6.45909 19.7 8.29044 19.7 10.2V16.5ZM17.9 16.5V10.2C17.9 8.76783 17.3311 7.39432 16.3184 6.38162C15.3057 5.36893 13.9322 4.8 12.5 4.8C11.0678 4.8 9.69432 5.36893 8.68162 6.38162C7.66893 7.39432 7.1 8.76783 7.1 10.2V16.5H17.9ZM9.8 20.1H15.2V21.9H9.8V20.1Z" fill="#171717"/>
</svg>
